<svg xmlns="http://www.w3.org/2000/svg" viewBox="0 0 64 64"><defs><linearGradient id="f" x1="0" y1="0" x2="0" y2="1">
    <stop offset="0" stop-color="#F47B20"/>
    <stop offset="0.55" stop-color="#E8471A"/>
    <stop offset="1" stop-color="#C81E12"/>
  </linearGradient></defs>
  <path d="M17 40 C10 37 4 31 3 24 L9 21 C11 28 16 33 22 36 Z" fill="url(#f)"/>
  <path d="M44 28 C56 28 60 34 60 40 C60 47 54 51 47 51 L47 45 C51 45 54 43 54 40 C54 36 51 34 44 34 Z" fill="url(#f)"/>
  <ellipse cx="32" cy="41" rx="20" ry="17" fill="url(#f)"/>
  <ellipse cx="32" cy="25" rx="12" ry="5" fill="url(#f)"/>
  <path d="M29 22 C29 18 35 18 35 22 Z" fill="url(#f)"/>
  <ellipse cx="32" cy="18" rx="4.5" ry="2.6" fill="url(#f)"/></svg>